<svg width="486" height="304" viewBox="0 0 486 304" version="1.1" xmlns="http://www.w3.org/2000/svg" xmlns:xlink="http://www.w3.org/1999/xlink">
<title>ill_01</title>
<desc>Created using Figma</desc>
<g id="Canvas" transform="matrix(0.5 0 0 0.5 -29.5 90.5)">
<g id="ill_01">
<g id="Fill 3">
<use xlink:href="#path0_fill" transform="matrix(-1 0 0 1 1062.2 -213)" fill="url(#paint0_linear)"/>
</g>
<g id="Fill 6" style="mix-blend-mode:overlay" opacity="0.12">
<use xlink:href="#path1_fill" transform="translate(330.301 -341)" fill="url(#paint1_linear)"/>
</g>
<g id="Fill 8" opacity="0.48">
<use xlink:href="#path2_fill" transform="translate(646.8 187)" fill="url(#paint2_linear)"/>
</g>
</g>
</g>
<defs>
<linearGradient id="paint0_linear" x1="0" y1="0" x2="1" y2="0" gradientUnits="userSpaceOnUse" gradientTransform="matrix(-986.746 -570.487 986.746 -570.487 1003.2 570.487)">
<stop offset="0" stop-color="#E0E2E5"/>
<stop offset="1" stop-color="#6DB3FF"/>
</linearGradient>
<linearGradient id="paint1_linear" x1="0" y1="0" x2="1" y2="0" gradientUnits="userSpaceOnUse" gradientTransform="matrix(1.0499e-12 341.399 -859.699 4.16932e-13 429.85 -8.49913e-15)">
<stop offset="0" stop-color="#FFFFFF" stop-opacity="0.01"/>
<stop offset="1" stop-color="#FFFFFF"/>
</linearGradient>
<linearGradient id="paint2_linear" x1="0" y1="0" x2="1" y2="0" gradientUnits="userSpaceOnUse" gradientTransform="matrix(5.07061e-13 240 -415.2 2.93099e-13 207.6 -5.9748e-15)">
<stop offset="0" stop-color="#FFFFFF" stop-opacity="0.01"/>
<stop offset="1" stop-color="#FFFFFF"/>
</linearGradient>
<path id="path0_fill" fill-rule="evenodd" d="M 1003.2 0L 588.001 240L 0 580L 0 0L 1003.2 0Z"/>
<path id="path1_fill" fill-rule="evenodd" d="M 859.699 0L 859.699 80L 435.3 325.2C 398.1 346.799 352.499 346.799 315.3 325.2L 20.0993 154.8C -6.69975 139.199 -6.69975 100.801 20.0993 85.2L 167.699 0L 859.699 0Z"/>
<path id="path2_fill" fill-rule="evenodd" d="M 415.2 0L 415.2 240L 0 240L 415.2 0Z"/>
</defs>
</svg>
