<svg width="12" height="12" viewBox="0 0 12 12" version="1.1" xmlns="http://www.w3.org/2000/svg" xmlns:xlink="http://www.w3.org/1999/xlink">
<title>Group</title>
<desc>Created using Figma</desc>
<g id="Canvas" transform="translate(-384 -1605)">
<g id="Group">
<g id="Dot">
<use xlink:href="#path0_stroke" transform="translate(385 1606)" fill="#BEC2C9"/>
</g>
<g id="Dot">
<use xlink:href="#path1_fill" transform="translate(388 1609)" fill="#BEC2C9"/>
</g>
</g>
</g>
<defs>
<path id="path0_stroke" d="M 5 10.5C 8.03757 10.5 10.5 8.03757 10.5 5L 9.5 5C 9.5 7.48528 7.48528 9.5 5 9.5L 5 10.5ZM 10.5 5C 10.5 1.96243 8.03757 -0.5 5 -0.5L 5 0.5C 7.48528 0.5 9.5 2.51472 9.5 5L 10.5 5ZM 5 -0.5C 1.96243 -0.5 -0.5 1.96243 -0.5 5L 0.5 5C 0.5 2.51472 2.51472 0.5 5 0.5L 5 -0.5ZM -0.5 5C -0.5 8.03757 1.96243 10.5 5 10.5L 5 9.5C 2.51472 9.5 0.5 7.48528 0.5 5L -0.5 5Z"/>
<path id="path1_fill" fill-rule="evenodd" d="M 2 4C 3.10457 4 4 3.10457 4 2C 4 0.89543 3.10457 0 2 0C 0.89543 0 0 0.89543 0 2C 0 3.10457 0.89543 4 2 4Z"/>
</defs>
</svg>
