<svg width="36" height="36" viewBox="0 0 36 36" version="1.1" xmlns="http://www.w3.org/2000/svg" xmlns:xlink="http://www.w3.org/1999/xlink">
<title>icn_fb</title>
<desc>Created using Figma</desc>
<g id="Canvas" transform="translate(-328 -1814)">
<rect x="328" y="1814" width="36" height="36" fill="#FFFFFF"/>
<clipPath id="clip-0" clip-rule="evenodd">
<path d="M -250 -181L 1030 -181L 1030 1894L -250 1894L -250 -181Z" fill="#FFFFFF"/>
</clipPath>
<g id="01_Slide" clip-path="url(#clip-0)">
<g id="bg_footer">
<g id="bg_footer">
<g id="bg_footer">
<use xlink:href="#path0_fill" transform="translate(-250 1769)" fill="#FFFFFF"/>
</g>
<g id="icons_sm">
<g id="icn_fb">
<g id="mask">
<use xlink:href="#path1_fill" transform="translate(328 1814)" fill="#FAFAFA"/>
</g>
<g id="Combined-Shape">
<use xlink:href="#path2_fill" transform="translate(336 1822)" fill="#2E2E2E"/>
</g>
</g>
</g>
</g>
</g>
</g>
</g>
<defs>
<path id="path0_fill" fill-rule="evenodd" d="M 0 0L 1280 0L 1280 125L 0 125L 0 0Z"/>
<path id="path1_fill" fill-rule="evenodd" d="M 0 4C 0 1.79086 1.79086 0 4 0L 32 0C 34.2091 0 36 1.79086 36 4L 36 32C 36 34.2091 34.2091 36 32 36L 4 36C 1.79086 36 0 34.2091 0 32L 0 4Z"/>
<path id="path2_fill" fill-rule="evenodd" d="M 4.99524 0L 15.0048 0C 17.7635 0 20 2.23608 20 4.99524L 20 15.0048C 20 17.7635 17.764 20 15.0048 20L 4.99524 20C 2.23645 20 0 17.7639 0 15.0048L 0 4.99524C 0 2.23645 2.23602 0 4.99524 0ZM 2 15.0048C 2 16.6592 3.34085 18 4.99524 18L 15.0048 18C 16.6592 18 18 16.6592 18 15.0048L 18 4.99524C 18 3.34082 16.6591 2 15.0048 2L 4.99524 2C 3.34079 2 2 3.34082 2 4.99524L 2 15.0048ZM 10 5C 7.23859 5 5 7.23853 5 10C 5 12.7615 7.23859 15 10 15C 12.7614 15 15 12.7615 15 10C 15 7.23853 12.7614 5 10 5ZM 13 10C 13 8.34314 11.6569 7 10 7C 8.34314 7 7 8.34314 7 10C 7 11.6569 8.34314 13 10 13C 11.6569 13 13 11.6569 13 10ZM 14 5C 14 5.55225 14.4477 6 15 6C 15.5523 6 16 5.55225 16 5C 16 4.44775 15.5523 4 15 4C 14.4477 4 14 4.44775 14 5Z"/>
</defs>
</svg>
