<svg width="32" height="32" viewBox="0 0 32 32" version="1.1" xmlns="http://www.w3.org/2000/svg" xmlns:xlink="http://www.w3.org/1999/xlink">
<title>Page 1</title>
<desc>Created using Figma</desc>
<g id="Canvas" transform="translate(180 149)">
<rect x="-180" y="-149" width="32" height="32" fill="#FFFFFF"/>
<clipPath id="clip-0" clip-rule="evenodd">
<path d="M -250 -181L 1030 -181L 1030 1894L -250 1894L -250 -181Z" fill="#FFFFFF"/>
</clipPath>
<g id="01_Slide" clip-path="url(#clip-0)">
<g id="Hero">
<mask id="mask0_outline" mask-type="alpha">
<g id="bg_primary">
<use xlink:href="#path0_fill" transform="translate(-250 -181)" fill="#FFFFFF"/>
</g>
</mask>
<g id="bg_primary" mask="url(#mask0_outline)">
<use xlink:href="#path0_fill" transform="translate(-250 -192)" fill="#FFFFFF"/>
</g>
</g>
<g id="bg_header_01">
<g id="bg_header_01">
<g id="bg_header" opacity="0.01" filter="url(#filter0_d)">
<use xlink:href="#path1_fill" transform="translate(-250 -181)" fill="#FFFFFF"/>
</g>
<g id="Page 1">
<g id="Combined Shape">
<use xlink:href="#path2_fill" transform="translate(-177 -149)" fill="#3B7CFF"/>
</g>
<g id="Combined Shape">
<use xlink:href="#path3_fill" transform="translate(-157 -146)" fill="#3B7CFF"/>
</g>
<g id="Combined Shape">
<use xlink:href="#path4_fill" transform="translate(-168 -126)" fill="#3B7CFF"/>
</g>
<g id="Combined Shape">
<use xlink:href="#path5_fill" transform="translate(-180 -137)" fill="#3B7CFF"/>
</g>
</g>
</g>
</g>
</g>
</g>
<defs>
<filter id="filter0_d" filterUnits="userSpaceOnUse" x="-250" y="-181" width="1280" height="120" color-interpolation-filters="sRGB">
<feFlood flood-opacity="0" result="BackgroundImageFix"/>
<feColorMatrix in="SourceAlpha" type="matrix" values="0 0 0 0 0 0 0 0 0 0 0 0 0 0 0 0 0 0 255 0"/>
<feOffset dx="0" dy="8"/>
<feGaussianBlur stdDeviation="8"/>
<feColorMatrix type="matrix" values="0 0 0 0 0.180392 0 0 0 0 0.180392 0 0 0 0 0.180392 0 0 0 0.04 0"/>
<feBlend mode="normal" in2="BackgroundImageFix" result="effect1_dropShadow"/>
<feBlend mode="normal" in="SourceGraphic" in2="effect1_dropShadow" result="shape"/>
</filter>
<path id="path0_fill" fill-rule="evenodd" d="M 0 0L 1280 0L 1280 640L 0 640L 0 0Z"/>
<path id="path1_fill" fill-rule="evenodd" d="M 0 0L 1280 0L 1280 96L 0 96L 0 0Z"/>
<path id="path2_fill" fill-rule="evenodd" d="M 9 7C 9 7.552 9.448 8 10 8L 16 8C 16.552 8 17 7.552 17 7L 17 1C 17 0.447998 16.552 0 16 0L 10 0C 9.448 0 9 0.447998 9 1L 9 3L 1 3C 0.447998 3 0 3.448 0 4L 0 8C 0 8.552 0.447998 9 1 9C 1.552 9 2 8.552 2 8L 2 5L 9 5L 9 7Z"/>
<path id="path3_fill" fill-rule="evenodd" d="M 4 9L 4 2L 1 2C 0.447998 2 0 1.552 0 1C 0 0.447998 0.447998 0 1 0L 5 0C 5.552 0 6 0.447998 6 1L 6 9L 8 9C 8.552 9 9 9.448 9 10L 9 16C 9 16.552 8.552 17 8 17L 2 17C 1.448 17 1 16.552 1 16L 1 10C 1 9.448 1.448 9 2 9L 4 9Z"/>
<path id="path4_fill" fill-rule="evenodd" d="M 8 6L 16 6C 16.552 6 17 5.552 17 5L 17 1C 17 0.447998 16.552 0 16 0C 15.448 0 15 0.447998 15 1L 15 4L 8 4L 8 2C 8 1.448 7.552 1 7 1L 1 1C 0.447998 1 0 1.448 0 2L 0 8C 0 8.552 0.447998 9 1 9L 7 9C 7.552 9 8 8.552 8 8L 8 6Z"/>
<path id="path5_fill" fill-rule="evenodd" d="M 5 8L 7 8C 7.552 8 8 7.552 8 7L 8 1C 8 0.447998 7.552 0 7 0L 1 0C 0.447998 0 0 0.447998 0 1L 0 7C 0 7.552 0.447998 8 1 8L 3 8L 3 16C 3 16.552 3.448 17 4 17L 8 17C 8.552 17 9 16.552 9 16C 9 15.448 8.552 15 8 15L 5 15L 5 8Z"/>
</defs>
</svg>
