<svg width="16" height="16" viewBox="0 0 16 16" version="1.1" xmlns="http://www.w3.org/2000/svg" xmlns:xlink="http://www.w3.org/1999/xlink">
<title>Radio button</title>
<desc>Created using Figma</desc>
<g id="Canvas" transform="translate(-7004 -1105)">
<g id="Radio button">
<g id="Oval">
<use xlink:href="#path0_fill" transform="translate(7004 1105)" fill="#FCFCFC"/>
<mask id="mask0_outline_ins">
<use xlink:href="#path0_fill" fill="white" transform="translate(7004 1105)"/>
</mask>
<g mask="url(#mask0_outline_ins)">
<use xlink:href="#path1_stroke_2x" transform="translate(7004 1105)" fill="#EDEEEE"/>
</g>
</g>
</g>
</g>
<defs>
<path id="path0_fill" fill-rule="evenodd" d="M 8 16C 12.4183 16 16 12.4183 16 8C 16 3.58172 12.4183 0 8 0C 3.58172 0 0 3.58172 0 8C 0 12.4183 3.58172 16 8 16Z"/>
<path id="path1_stroke_2x" d="M 8 18C 13.5228 18 18 13.5228 18 8L 14 8C 14 11.3137 11.3137 14 8 14L 8 18ZM 18 8C 18 2.47715 13.5228 -2 8 -2L 8 2C 11.3137 2 14 4.68629 14 8L 18 8ZM 8 -2C 2.47715 -2 -2 2.47715 -2 8L 2 8C 2 4.68629 4.68629 2 8 2L 8 -2ZM -2 8C -2 13.5228 2.47715 18 8 18L 8 14C 4.68629 14 2 11.3137 2 8L -2 8Z"/>
</defs>
</svg>
