<svg width="36" height="36" viewBox="0 0 36 36" version="1.1" xmlns="http://www.w3.org/2000/svg" xmlns:xlink="http://www.w3.org/1999/xlink">
<title>icn_fb</title>
<desc>Created using Figma</desc>
<g id="Canvas" transform="translate(-416 -1814)">
<rect x="416" y="1814" width="36" height="36" fill="#FFFFFF"/>
<clipPath id="clip-0" clip-rule="evenodd">
<path d="M -250 -181L 1030 -181L 1030 1894L -250 1894L -250 -181Z" fill="#FFFFFF"/>
</clipPath>
<g id="01_Slide" clip-path="url(#clip-0)">
<g id="bg_footer">
<g id="bg_footer">
<g id="bg_footer">
<use xlink:href="#path0_fill" transform="translate(-250 1769)" fill="#FFFFFF"/>
</g>
<g id="icons_sm">
<g id="icn_fb">
<g id="mask">
<use xlink:href="#path1_fill" transform="translate(416 1814)" fill="#FAFAFA"/>
</g>
<g id="Combined-Shape">
<use xlink:href="#path2_fill" transform="translate(424 1823)" fill="#2E2E2E"/>
</g>
</g>
</g>
</g>
</g>
</g>
</g>
<defs>
<path id="path0_fill" fill-rule="evenodd" d="M 0 0L 1280 0L 1280 125L 0 125L 0 0Z"/>
<path id="path1_fill" fill-rule="evenodd" d="M 0 4C 0 1.79086 1.79086 0 4 0L 32 0C 34.2091 0 36 1.79086 36 4L 36 32C 36 34.2091 34.2091 36 32 36L 4 36C 1.79086 36 0 34.2091 0 32L 0 4Z"/>
<path id="path2_fill" fill-rule="evenodd" d="M 19.72 3.4117C 20.3012 2.58333 19.9471 1.95602 18.9397 2.01021L 17.5541 2.08468C 16.7082 0.80123 15.3195 -0.00943852 13.4954 8.29683e-05C 10.4372 0.0159521 8.60928 2.29256 8.50997 5.29415C 6.42944 4.78854 4.60931 3.59688 3.31393 1.89828C 2.86654 1.31161 1.95995 1.39535 1.62747 2.05404C -0.174506 5.62411 0.106348 10.0023 3.1524 13.0843C 3.1524 13.0843 0.845819 13.5832 0.812768 13.5896C 0.092279 13.7271 -0.239417 14.5688 0.193201 15.1616C 1.64337 17.1484 3.74774 18 7.00494 18C 13.6005 18 18.4972 13.0677 18.502 5.92867C 18.5021 5.79525 18.4949 5.2756 18.49 5.16488L 19.72 3.4117ZM 5.65893 14.4062C 6.36254 14.0776 6.43926 13.1067 5.79598 12.6715C 4.07336 11.5063 3.07433 9.99667 2.6787 8.37997C 2.95986 8.56344 3.25747 8.73238 3.57171 8.88448C 4.06854 9.12496 4.66616 8.91695 4.90649 8.41976C 5.14684 7.92269 4.93893 7.32467 4.4421 7.08407C 4.12567 6.93099 3.83206 6.75533 3.56091 6.56161C 3.20754 6.30904 2.58782 5.6816 2.55517 5.64278C 2.61157 5.24239 2.84243 4.37142 2.84243 4.37142C 4.59832 6.07723 6.87399 7.17818 9.38043 7.48067C 9.97549 7.55245 10.4994 7.08761 10.4994 6.48788L 10.501 5.99203L 10.5026 5.49996C 10.5026 3.43026 11.5893 2.00997 13.5059 1.99996C 15.4088 1.99007 16.4987 3.42074 16.4987 5.49996L 16.4999 5.60226C 16.5013 5.70577 16.5034 5.85836 16.5033 5.92733C 16.4992 11.9655 12.494 16 7.00494 16C 5.29418 16 3.98568 15.7127 3.05212 15.1624C 3.05212 15.1624 5.39532 14.5293 5.65893 14.4062Z"/>
</defs>
</svg>
